<svg width="117" height="16" viewBox="0 0 117 16" fill="none" xmlns="http://www.w3.org/2000/svg">
<g opacity="0.2">
<path d="M19 1.89418C18.2885 2.22063 17.5339 2.43494 16.7612 2.53001C17.5648 2.02959 18.183 1.23876 18.4739 0.29506C17.7088 0.765557 16.8717 1.09704 15.9987 1.27518C15.262 0.459875 14.2317 -0.00193272 13.1538 6.08018e-06C11.002 6.08018e-06 9.25551 1.80801 9.25551 4.03832C9.25551 4.35523 9.28993 4.6641 9.35733 4.95902C6.11725 4.79033 3.24566 3.18317 1.3227 0.739337C0.986934 1.3351 0.795414 2.02959 0.795414 2.76992C0.795414 4.17045 1.48331 5.40682 2.52903 6.1312C1.9099 6.11154 1.30434 5.93829 0.763171 5.626V5.6775C0.763171 7.63373 2.10696 9.26614 3.88931 9.63794C3.31528 9.799 2.71341 9.82262 2.12927 9.70702C2.62552 11.3118 4.06556 12.4792 5.77057 12.5131C4.43672 13.5946 2.75619 14.2415 0.929478 14.2415C0.618863 14.2411 0.308525 14.2222 0 14.185C1.72489 15.3305 3.77428 16 5.97543 16C13.1453 16 17.0654 9.84469 17.0654 4.50683C17.0654 4.33224 17.0654 4.15764 17.0533 3.9843C17.8161 3.41243 18.4748 2.70473 18.9988 1.89418H19Z" fill="black"/>
<path fill-rule="evenodd" clip-rule="evenodd" d="M103.556 11.4294V4.57175L109.667 8.012L103.556 11.4294ZM116.78 3.45168C116.78 3.45168 116.565 1.88356 115.906 1.19323C115.069 0.286878 114.131 0.283449 113.701 0.230874C110.624 0 106.006 0 106.006 0H105.996C105.996 0 101.378 0 98.3 0.230874C97.8686 0.283449 96.9311 0.288021 96.0939 1.19323C95.4339 1.88356 95.22 3.45168 95.22 3.45168C95.22 3.45168 95 5.29181 95 7.13194V8.86006C95 10.7002 95.22 12.5403 95.22 12.5403C95.22 12.5403 95.4339 14.1096 96.0939 14.7999C96.9311 15.7051 98.0299 15.6765 98.52 15.7714C100.28 15.9463 106 16 106 16C106 16 110.622 15.9931 113.7 15.7623C114.131 15.7097 115.069 15.7051 115.906 14.7988C116.566 14.1073 116.78 12.5392 116.78 12.5392C116.78 12.5392 117 10.699 117 8.85892V7.13194C117 5.29181 116.78 3.45168 116.78 3.45168Z" fill="black"/>
<path fill-rule="evenodd" clip-rule="evenodd" d="M52 0H62C63.6569 0 65 1.34315 65 3V13C65 14.6569 63.6569 16 62 16H52C50.3431 16 49 14.6569 49 13V3C49 1.34315 50.3431 0 52 0ZM60 10.4615H61.5556L62 8.38461H60V7C59.8945 6.41341 60.0596 5.99253 60.8889 6.07692H62V4C61.8118 4.0581 61.1663 4 60.4444 4C58.8471 4 57.7735 4.99412 57.7778 6.76923V8.38461H56V10.4615H57.7778V16H60V10.4615Z" fill="black"/>
</g>
</svg>
