<svg width="512" height="379" viewBox="0 0 512 379" fill="none" xmlns="http://www.w3.org/2000/svg">
<rect x="34" y="23" width="476" height="356" rx="8" fill="white"/>
<mask id="mask0" mask-type="alpha" maskUnits="userSpaceOnUse" x="34" y="23" width="476" height="356">
<rect x="34" y="23" width="476" height="356" rx="8" fill="white"/>
</mask>
<g mask="url(#mask0)">
<rect x="358.632" y="76.4023" width="134.908" height="164.138" rx="6" fill="#EAEDF0"/>
<path d="M402.477 218.056C402.477 218.056 404.113 214.556 406.977 214.556C409.84 214.556 411.477 218.056 411.477 218.056C411.477 218.056 409.84 221.556 406.977 221.556C404.113 221.556 402.477 218.056 402.477 218.056Z" stroke="#A0B4C2" stroke-linecap="round" stroke-linejoin="round"/>
<path d="M406.976 219.612C407.88 219.612 408.613 218.915 408.613 218.056C408.613 217.197 407.88 216.5 406.976 216.5C406.072 216.5 405.34 217.197 405.34 218.056C405.34 218.915 406.072 219.612 406.976 219.612Z" stroke="#A0B4C2" stroke-linecap="round" stroke-linejoin="round"/>
<path d="M425.343 214.056C424.96 214.057 424.584 214.162 424.255 214.359C423.927 214.556 423.658 214.839 423.477 215.177C423.252 214.759 422.895 214.428 422.461 214.237C422.027 214.046 421.541 214.005 421.081 214.121C420.622 214.238 420.214 214.505 419.923 214.879C419.632 215.254 419.475 215.715 419.477 216.189C419.477 218.323 423.477 222.056 423.477 222.056C423.477 222.056 427.477 218.323 427.477 216.189C427.477 215.624 427.252 215.081 426.852 214.681C426.452 214.281 425.909 214.056 425.343 214.056V214.056Z" stroke="#A0B4C2" stroke-linecap="round" stroke-linejoin="round"/>
<path d="M440.722 216.161L438.232 217.406M440.722 219.951L438.232 218.706M443.477 215.511C443.477 216.314 442.825 216.965 442.022 216.965C441.219 216.965 440.567 216.314 440.567 215.511C440.567 214.707 441.219 214.056 442.022 214.056C442.825 214.056 443.477 214.707 443.477 215.511ZM443.477 220.602C443.477 221.405 442.825 222.056 442.022 222.056C441.219 222.056 440.567 221.405 440.567 220.602C440.567 219.798 441.219 219.147 442.022 219.147C442.825 219.147 443.477 219.798 443.477 220.602ZM438.386 218.056C438.386 218.859 437.734 219.511 436.931 219.511C436.128 219.511 435.477 218.859 435.477 218.056C435.477 217.253 436.128 216.602 436.931 216.602C437.734 216.602 438.386 217.253 438.386 218.056Z" stroke="#A0B4C2" stroke-linecap="round" stroke-linejoin="round"/>
<rect x="386.737" y="139.36" width="80.945" height="6.74542" rx="2" fill="#A4B9CA"/>
<rect x="400.229" y="150.602" width="53.9633" height="6.74542" rx="2" fill="#D3DCE3"/>
<circle cx="427.211" cy="107.881" r="13.4908" stroke="#A4B9CA"/>
<path d="M424.962 102.26L432.832 107.881L424.962 113.502L424.962 102.26Z" stroke="#A4B9CA" stroke-linejoin="round"/>
<rect x="358.632" y="258.529" width="134.908" height="164.138" rx="6" fill="#EAEDF0"/>
<rect x="386.737" y="321.486" width="80.945" height="6.74542" rx="2" fill="#004071" fill-opacity="0.3"/>
<rect x="400.229" y="332.728" width="53.9633" height="6.74542" rx="2" fill="#004071" fill-opacity="0.1"/>
<circle cx="427.211" cy="290.007" r="13.4908" stroke="#A0B4C2"/>
<rect x="52.8398" y="76.4023" width="134.908" height="164.138" rx="6" fill="#EAEDF0"/>
<rect x="205.735" y="76.4023" width="134.908" height="164.138" rx="6" fill="#EAEDF0"/>
<path d="M249.58 218.056C249.58 218.056 251.216 214.556 254.08 214.556C256.944 214.556 258.58 218.056 258.58 218.056C258.58 218.056 256.944 221.556 254.08 221.556C251.216 221.556 249.58 218.056 249.58 218.056Z" stroke="#A0B4C2" stroke-linecap="round" stroke-linejoin="round"/>
<path d="M254.08 219.612C254.983 219.612 255.716 218.915 255.716 218.056C255.716 217.197 254.983 216.5 254.08 216.5C253.176 216.5 252.443 217.197 252.443 218.056C252.443 218.915 253.176 219.612 254.08 219.612Z" stroke="#A0B4C2" stroke-linecap="round" stroke-linejoin="round"/>
<path d="M272.447 214.056C272.064 214.057 271.688 214.162 271.359 214.359C271.03 214.556 270.761 214.839 270.58 215.177C270.356 214.759 269.998 214.428 269.564 214.237C269.13 214.046 268.645 214.005 268.185 214.121C267.725 214.238 267.317 214.505 267.027 214.879C266.736 215.254 266.579 215.715 266.58 216.189C266.58 218.323 270.58 222.056 270.58 222.056C270.58 222.056 274.58 218.323 274.58 216.189C274.58 215.624 274.355 215.081 273.955 214.681C273.555 214.281 273.013 214.056 272.447 214.056V214.056Z" stroke="#A0B4C2" stroke-linecap="round" stroke-linejoin="round"/>
<path d="M287.826 216.161L285.335 217.406M287.826 219.951L285.335 218.706M290.58 215.511C290.58 216.314 289.929 216.965 289.126 216.965C288.322 216.965 287.671 216.314 287.671 215.511C287.671 214.707 288.322 214.056 289.126 214.056C289.929 214.056 290.58 214.707 290.58 215.511ZM290.58 220.602C290.58 221.405 289.929 222.056 289.126 222.056C288.322 222.056 287.671 221.405 287.671 220.602C287.671 219.798 288.322 219.147 289.126 219.147C289.929 219.147 290.58 219.798 290.58 220.602ZM285.489 218.056C285.489 218.859 284.838 219.511 284.035 219.511C283.231 219.511 282.58 218.859 282.58 218.056C282.58 217.253 283.231 216.602 284.035 216.602C284.838 216.602 285.489 217.253 285.489 218.056Z" stroke="#A0B4C2" stroke-linecap="round" stroke-linejoin="round"/>
<rect x="232.717" y="139.36" width="80.945" height="6.74542" rx="2" fill="#004071" fill-opacity="0.3"/>
<rect x="246.208" y="150.602" width="53.9633" height="6.74542" rx="2" fill="#004071" fill-opacity="0.1"/>
<circle cx="273.189" cy="107.881" r="13.4908" stroke="#A0B4C2"/>
<path d="M273.19 104.508L267.568 102.26V111.254L273.19 113.502L278.811 111.254V102.26L273.19 104.508Z" stroke="#A0B4C2" stroke-miterlimit="10" stroke-linecap="round" stroke-linejoin="round"/>
<line x1="273.127" y1="105.008" x2="273.127" y2="113.002" stroke="#A0B4C2" stroke-linecap="round" stroke-linejoin="round"/>
<rect x="205.735" y="258.529" width="134.908" height="164.138" rx="6" fill="#EAEDF0"/>
<rect x="232.717" y="321.486" width="80.945" height="6.74542" rx="2" fill="#004071" fill-opacity="0.3"/>
<rect x="246.208" y="332.728" width="53.9633" height="6.74542" rx="2" fill="#004071" fill-opacity="0.1"/>
<circle cx="273.189" cy="290.007" r="13.4908" stroke="#A0B4C2"/>
<path d="M277.312 285.51H269.067C268.842 285.51 268.692 285.66 268.692 285.885V294.13C268.692 294.354 268.842 294.504 269.067 294.504H277.312C277.536 294.504 277.686 294.354 277.686 294.13V285.885C277.686 285.66 277.536 285.51 277.312 285.51ZM271.353 293.193H270.041V288.883H271.391V293.193H271.353ZM270.679 288.284C270.266 288.284 269.892 287.946 269.892 287.497C269.892 287.084 270.229 286.71 270.679 286.71C271.091 286.71 271.465 287.047 271.465 287.497C271.465 287.946 271.128 288.284 270.679 288.284ZM276.375 293.193H275.026V291.094C275.026 290.607 275.026 289.97 274.351 289.97C273.639 289.97 273.564 290.495 273.564 291.057V293.193H272.215V288.883H273.489V289.483C273.676 289.146 274.089 288.808 274.763 288.808C276.112 288.808 276.375 289.708 276.375 290.869V293.193Z" fill="#A0B4C2"/>
<rect x="52.8398" y="258.529" width="134.908" height="164.138" rx="6" fill="#EAEDF0"/>
<rect x="79.8213" y="321.486" width="80.945" height="6.74542" rx="2" fill="#004071" fill-opacity="0.3"/>
<rect x="93.3125" y="332.728" width="53.9633" height="6.74542" rx="2" fill="#004071" fill-opacity="0.1"/>
<circle cx="120.294" cy="290.007" r="13.4908" stroke="#A0B4C2"/>
<path d="M120.294 286.635L114.673 284.386V293.38L120.294 295.629L125.915 293.38V284.386L120.294 286.635Z" stroke="#A0B4C2" stroke-miterlimit="10" stroke-linecap="round" stroke-linejoin="round"/>
<line x1="120.231" y1="287.135" x2="120.231" y2="295.129" stroke="#A0B4C2" stroke-linecap="round" stroke-linejoin="round"/>
</g>
<path d="M67.1188 51.9075C67.9686 51.3669 68.5782 50.5707 68.5782 49.4501C68.5782 48.3198 68.0979 47.5236 67.1188 47.0616L52.8389 40.4268L65.4562 52.9789L67.1188 51.9075Z" fill="#004071"/>
<path d="M59.3877 50.7378L52.8389 58.4145L65.253 53.1067L59.3877 50.7378Z" fill="#004071"/>
<rect x="86.5664" y="46.0479" width="38.224" height="6.74542" rx="2" fill="#A6B9C8"/>
<rect x="142.778" y="46.0479" width="38.224" height="6.74542" rx="2" fill="#D5DCE1"/>
<rect x="198.99" y="46.0479" width="38.224" height="6.74542" rx="2" fill="#D5DCE1"/>
<rect x="86.5664" y="22.439" width="38.224" height="2.24847" fill="#00BCF1"/>
<circle cx="484.546" cy="49.4206" r="8.99389" fill="#D3DCE3"/>
<path d="M430.787 292.051C431.911 292.051 432.831 291.131 432.831 290.007C432.831 288.883 431.911 287.963 430.787 287.963C430.634 285.97 428.999 284.386 426.955 284.386C424.91 284.386 423.224 286.021 423.122 288.014C422.253 288.219 421.589 289.036 421.589 290.007C421.589 291.131 422.509 292.051 423.633 292.051" stroke="#A0B4C2" stroke-miterlimit="10" stroke-linecap="round" stroke-linejoin="round"/>
<path d="M427.721 290.007L426.188 292.562H428.232L426.699 295.117" stroke="#A0B4C2" stroke-miterlimit="10" stroke-linecap="round" stroke-linejoin="round"/>
</svg>
