<svg width="98" height="41" viewBox="0 0 98 41" fill="none" xmlns="http://www.w3.org/2000/svg">
<path fill-rule="evenodd" clip-rule="evenodd" d="M34.9407 23.9155C37.3375 27.9245 41.3471 29.6246 49.0605 29.6246C56.7737 29.6246 60.7829 27.9245 63.1794 23.9155C64.5308 21.6061 65.0099 17.4706 65.0099 14.8122C65.0099 12.1545 64.5308 8.019 63.1794 5.70966C60.7829 1.70008 56.7735 0 49.0605 0C41.3472 0 37.3375 1.70008 34.9407 5.70966C33.5898 8.019 33.1104 12.1545 33.1104 14.8122C33.1104 17.4706 33.5898 21.6061 34.9407 23.9155ZM55.0075 14.3834C55.6168 15.7781 56.8806 16.1706 57.7524 16.1706C59.6262 16.1706 61.2392 14.2097 60.4111 12.1178L59.4737 9.84873C58.8635 8.45507 57.5998 8.06205 56.7283 8.06205C54.8542 8.06205 53.242 10.0234 54.0701 12.1149L55.0075 14.3834ZM50.1918 21.3971C50.801 22.7916 52.0646 23.1842 52.9371 23.1842C54.8103 23.1842 56.4232 21.2229 55.5951 19.1304L51.7601 9.84873C51.1504 8.45507 49.8864 8.06205 49.0149 8.06205C47.1413 8.06205 45.5283 10.0234 46.3566 12.1149L50.1918 21.3971ZM42.4783 21.3971C43.0885 22.7917 44.3522 23.1842 45.2238 23.1842C47.0974 23.1842 48.7103 21.2229 47.8818 19.1304L44.0476 9.84873C43.4373 8.45507 42.1738 8.06205 41.3017 8.06205C39.4281 8.06205 37.8156 10.0234 38.6435 12.1149L42.4783 21.3971Z" fill="#A4B9CA"/>
<path d="M55.6192 36.0908C55.2265 35.9353 54.7415 35.8017 54.2917 35.8017C53.7552 35.8017 53.0213 35.9059 53.0213 36.4563C53.0213 37.0695 54.144 37.3079 54.763 37.513C55.6549 37.8089 56.4717 38.0724 56.4717 39.0712C56.4717 40.2632 55.3636 40.673 54.271 40.673C53.6624 40.673 52.8062 40.538 52.2611 40.1867C52.1138 40.0914 52.067 39.9638 52.067 39.8175C52.067 39.5557 52.2594 39.4202 52.4493 39.4202C52.5729 39.4202 52.7296 39.5014 52.7296 39.5014C53.2651 39.7664 53.7705 39.8597 54.2664 39.8597C54.8186 39.8597 55.5934 39.7203 55.5934 39.1038C55.5934 38.4563 54.605 38.3726 53.5963 38.0112C52.8695 37.7487 52.1428 37.4409 52.1428 36.4587C52.1428 35.3335 53.2448 34.9966 54.2713 34.9966C54.7899 34.9966 55.4706 35.1442 55.9686 35.3536C56.1298 35.4214 56.2243 35.5719 56.2243 35.7187C56.2243 35.9369 56.0906 36.1277 55.8401 36.1277C55.7795 36.1277 55.6863 36.1173 55.6192 36.0908ZM95.7624 38.3813H94.0787V40.1968C94.0787 40.4434 93.8818 40.6322 93.6351 40.6322C93.3884 40.6322 93.1995 40.4434 93.1995 40.1968V35.5307C93.1995 35.2844 93.3887 35.0952 93.6353 35.0952H95.7626C97.0362 35.0952 97.6192 35.8757 97.6192 36.7466C97.6192 37.6172 97.0364 38.3813 95.7626 38.3813H95.7624ZM95.8779 35.9004H94.0787V37.5678H95.8779C96.4527 37.5678 96.7321 37.1653 96.7321 36.7466C96.7321 36.3275 96.4529 35.9002 95.8779 35.9002V35.9004ZM83.2042 40.6728C81.6272 40.6728 80.4198 39.375 80.4198 37.8304C80.4198 36.2864 81.6272 34.9966 83.2042 34.9966C84.7815 34.9966 85.9791 36.2864 85.9791 37.8305C85.979 39.3749 84.7813 40.673 83.2042 40.673V40.6728ZM83.2042 35.8017C82.0623 35.8017 81.2985 36.7384 81.2985 37.8304C81.2985 38.9233 82.0623 39.8597 83.2042 39.8597C84.3464 39.8597 85.1022 38.9233 85.1022 37.8305C85.1021 36.7384 84.3464 35.8017 83.204 35.8017H83.2042ZM78.4609 38.1182C78.4609 38.1182 78.4934 38.1759 79.3887 40.0163C79.4213 40.0733 79.4298 40.1309 79.4298 40.1968C79.4298 40.3612 79.3476 40.5172 79.1915 40.5908C79.1338 40.6241 79.0685 40.6322 79.0027 40.6322C78.9213 40.6328 78.8415 40.6098 78.773 40.5661C78.7044 40.5223 78.6499 40.4596 78.6162 40.3856L77.5894 38.2663H75.8889V40.1968C75.8889 40.4434 75.6837 40.6322 75.4453 40.6322C75.3301 40.6314 75.2198 40.5853 75.1384 40.5038C75.057 40.4223 75.011 40.312 75.0104 40.1968V35.5307C75.0109 35.4154 75.0569 35.305 75.1383 35.2235C75.2198 35.1419 75.3302 35.0958 75.4454 35.0952H77.5981C78.6248 35.0952 79.4545 35.5881 79.4545 36.689C79.4545 37.3544 79.101 37.9047 78.4609 38.1182ZM77.7127 35.9004H75.8889V37.5099H77.7127C78.1896 37.5099 78.5754 37.2146 78.5754 36.7135C78.5754 36.2122 78.1971 35.9004 77.7127 35.9004ZM73.4779 39.6629C72.9443 40.3527 72.0735 40.673 71.2354 40.673C69.6578 40.673 68.4507 39.3837 68.4507 37.8387C68.4507 36.2947 69.6578 34.9966 71.2354 34.9966C71.9339 34.9966 72.6239 35.2265 73.1082 35.6949C73.1541 35.7365 73.191 35.7872 73.2164 35.8437C73.2418 35.9002 73.2553 35.9614 73.256 36.0233C73.256 36.1058 73.2318 36.1797 73.1741 36.2536C73.1401 36.2999 73.0956 36.3374 73.0442 36.3631C72.9928 36.3888 72.9361 36.4019 72.8786 36.4013C72.7881 36.4013 72.6981 36.3769 72.6239 36.319C72.3038 36.0727 71.9341 35.8015 71.2354 35.8015C70.0849 35.8015 69.3297 36.7547 69.3297 37.8387C69.3297 38.9232 70.0848 39.8679 71.2354 39.8679C71.7858 39.8679 72.3444 39.6705 72.6981 39.2762V38.2986H71.482C71.2684 38.2986 71.0792 38.1264 71.0792 37.9046C71.0792 37.6826 71.2684 37.5099 71.482 37.5099H73.1332C73.4042 37.5099 73.5767 37.7077 73.5767 37.9538V39.3835C73.5767 39.5066 73.5523 39.5725 73.4781 39.6629H73.4779ZM65.1258 39.6218C64.6248 40.2623 63.7949 40.673 62.9653 40.673C61.388 40.673 60.1889 39.3749 60.1889 37.8305C60.1889 36.2862 61.3882 34.9966 62.9653 34.9966C63.647 34.9966 64.3123 35.2347 64.8048 35.7113C64.8961 35.8017 64.9451 35.9083 64.9451 36.0153C64.9446 36.1118 64.9098 36.2049 64.8467 36.2779C64.8121 36.321 64.7684 36.356 64.7186 36.3802C64.6689 36.4044 64.6144 36.4172 64.5591 36.4178C64.4601 36.4162 64.3645 36.3814 64.2877 36.319C63.8937 35.9825 63.5238 35.8098 62.9651 35.8098C61.8148 35.8098 61.0761 36.7464 61.0761 37.8304C61.0761 38.9152 61.8148 39.868 62.9653 39.868C63.8113 39.868 64.2471 39.4245 64.5426 39.0706C64.5777 39.0315 64.6207 39.0003 64.6688 38.9792C64.7169 38.958 64.7689 38.9474 64.8214 38.9479C64.9206 38.9479 65.0277 38.9806 65.1011 39.0544C65.1835 39.1286 65.2244 39.2271 65.2244 39.3338C65.2244 39.4326 65.1911 39.5393 65.1258 39.6218ZM58.3724 40.632C58.3141 40.6323 58.2562 40.621 58.2023 40.5988C58.1484 40.5766 58.0993 40.5439 58.0581 40.5026C58.0169 40.4614 57.9842 40.4124 57.962 40.3584C57.9398 40.3045 57.9285 40.2466 57.9288 40.1883V35.4649C57.9285 35.4066 57.9398 35.3488 57.9619 35.2948C57.9841 35.2408 58.0168 35.1918 58.058 35.1505C58.0993 35.1092 58.1483 35.0766 58.2023 35.0544C58.2562 35.0322 58.314 35.0209 58.3724 35.0212C58.6191 35.0212 58.8075 35.218 58.8075 35.4648V40.1883C58.8075 40.435 58.6191 40.6322 58.3724 40.6322V40.632ZM89.4138 40.6728C88.0264 40.6728 87.1282 39.7615 87.1282 38.3565V35.4651C87.1282 35.2182 87.3183 35.0214 87.5655 35.0214C87.6238 35.0211 87.6817 35.0324 87.7356 35.0546C87.7896 35.0768 87.8386 35.1094 87.8798 35.1507C87.9211 35.1919 87.9537 35.2409 87.9759 35.2949C87.9981 35.3488 88.0094 35.4066 88.0091 35.4649V38.4693C88.0091 39.2987 88.5106 39.8656 89.4138 39.8656C90.3178 39.8656 90.8104 39.2986 90.8104 38.4693V35.4651C90.8102 35.4067 90.8214 35.3489 90.8437 35.2949C90.8659 35.2409 90.8986 35.1919 90.9399 35.1506C90.9812 35.1093 91.0303 35.0767 91.0843 35.0545C91.1383 35.0323 91.1961 35.021 91.2545 35.0214C91.3128 35.0212 91.3706 35.0325 91.4245 35.0547C91.4784 35.0769 91.5274 35.1096 91.5686 35.1508C91.6099 35.192 91.6425 35.241 91.6647 35.2949C91.687 35.3489 91.6983 35.4066 91.6981 35.4649V38.3563C91.6981 39.7615 90.8024 40.673 89.4138 40.673V40.6728ZM48.4862 40.6728C47.0982 40.6728 46.2024 39.7615 46.2024 38.3565V35.4651C46.2024 35.2182 46.3916 35.0214 46.6378 35.0214C46.6962 35.0211 46.754 35.0324 46.8079 35.0546C46.8619 35.0768 46.9109 35.1094 46.9521 35.1507C46.9934 35.1919 47.026 35.2409 47.0482 35.2949C47.0704 35.3488 47.0817 35.4066 47.0814 35.4649V38.4693C47.0814 39.2987 47.583 39.8656 48.4862 39.8656C49.3893 39.8656 49.8814 39.2986 49.8814 38.4693V35.4651C49.8812 35.4067 49.8925 35.3489 49.9148 35.2949C49.937 35.241 49.9697 35.1919 50.011 35.1507C50.0523 35.1094 50.1013 35.0768 50.1553 35.0546C50.2093 35.0324 50.2671 35.0211 50.3255 35.0214C50.3838 35.0212 50.4416 35.0325 50.4955 35.0547C50.5494 35.0769 50.5984 35.1096 50.6396 35.1508C50.6808 35.1921 50.7134 35.241 50.7356 35.295C50.7578 35.3489 50.7691 35.4066 50.7689 35.4649V38.3563C50.7687 39.7615 49.8731 40.673 48.4862 40.673V40.6728ZM44.296 40.632C44.2419 40.6326 44.1882 40.6224 44.1381 40.6019C44.088 40.5815 44.0425 40.5512 44.0042 40.5129C43.9659 40.4747 43.9357 40.4291 43.9152 40.379C43.8948 40.3289 43.8845 40.2752 43.8851 40.2211V37.1817C42.8995 39.1777 42.3574 40.4103 42.3574 40.4103C42.2915 40.5582 42.1601 40.632 42.004 40.632C41.8316 40.632 41.7165 40.5582 41.6426 40.4019L40.1063 37.19V40.2133C40.1058 40.3242 40.0616 40.4305 39.9831 40.5089C39.9047 40.5874 39.7984 40.6316 39.6875 40.632C39.4575 40.632 39.2769 40.4432 39.2769 40.2133V35.4322C39.2763 35.3781 39.2865 35.3244 39.3069 35.2743C39.3274 35.2242 39.3576 35.1787 39.3958 35.1404C39.4341 35.1022 39.4796 35.0719 39.5296 35.0514C39.5797 35.031 39.6334 35.0207 39.6875 35.0212C39.8683 35.0212 39.9994 35.1362 40.0735 35.2843L42.004 39.3253L43.9184 35.2756C43.9836 35.1279 44.1237 35.021 44.296 35.021C44.407 35.0216 44.5132 35.0658 44.5916 35.1443C44.67 35.2227 44.7143 35.3289 44.7148 35.4398V40.2209C44.7148 40.4514 44.5257 40.6322 44.296 40.6322V40.632ZM34.331 38.1182C34.331 38.1182 34.3637 38.1759 35.2593 40.0163C35.2919 40.0733 35.3004 40.1309 35.3004 40.1968C35.3004 40.3612 35.218 40.5172 35.0623 40.5908C35.0046 40.6241 34.9388 40.6322 34.8731 40.6322C34.7918 40.6327 34.7121 40.6097 34.6436 40.5659C34.5751 40.5222 34.5207 40.4596 34.4869 40.3856L33.4604 38.2663H31.7595V40.1968C31.7595 40.4434 31.5543 40.6322 31.3162 40.6322C31.201 40.6314 31.0907 40.5853 31.0092 40.5038C30.9277 40.4223 30.8816 40.312 30.8808 40.1968V35.5307C30.8815 35.4154 30.9275 35.305 31.0091 35.2235C31.0906 35.142 31.2009 35.0959 31.3162 35.0952H33.4682C34.4954 35.0952 35.325 35.5881 35.325 36.689C35.3248 37.3544 34.9718 37.9047 34.331 38.1182ZM33.583 35.9004H31.7595V37.5099H33.5827C34.0597 37.5099 34.4458 37.2146 34.4458 36.7135C34.4458 36.2122 34.0678 35.9004 33.5828 35.9004H33.583ZM29.1139 40.5663H25.9428C25.8845 40.5665 25.8267 40.5552 25.7728 40.533C25.7189 40.5108 25.6699 40.4781 25.6286 40.4368C25.5874 40.3956 25.5547 40.3466 25.5325 40.2926C25.5103 40.2387 25.499 40.1809 25.4993 40.1226V35.5307C25.4993 35.2844 25.6966 35.0952 25.9428 35.0952H28.9907C29.2207 35.0952 29.4097 35.2679 29.4097 35.4976C29.4093 35.6086 29.365 35.7149 29.2865 35.7934C29.208 35.8719 29.1016 35.9162 28.9906 35.9167H26.3781V37.3625H27.8407C27.8948 37.362 27.9484 37.3723 27.9985 37.3928C28.0485 37.4133 28.094 37.4435 28.1322 37.4818C28.1704 37.52 28.2007 37.5655 28.2211 37.6155C28.2416 37.6656 28.2519 37.7192 28.2514 37.7733C28.2514 38.0032 28.0703 38.1843 27.8407 38.1843H26.3782V39.7449H29.1137C29.3436 39.7449 29.5245 39.9258 29.5245 40.1559C29.5245 40.386 29.3438 40.5663 29.1139 40.5663ZM23.347 40.632C23.2072 40.632 23.1089 40.5828 23.0265 40.4761L20.1348 36.5823V40.2213C20.1348 40.4512 19.9462 40.6322 19.716 40.6322C19.4859 40.6322 19.3049 40.4515 19.3049 40.2213V35.4402C19.3047 35.3844 19.3157 35.3291 19.3373 35.2776C19.3588 35.2261 19.3904 35.1795 19.4303 35.1405C19.4702 35.1014 19.5174 35.0708 19.5693 35.0503C19.6213 35.0299 19.6767 35.02 19.7325 35.0214C19.8558 35.0214 19.9791 35.0871 20.0448 35.1774C20.0448 35.1774 21.6715 37.4367 22.936 39.0709V35.4402C22.936 35.2102 23.117 35.0214 23.347 35.0214C23.4579 35.0218 23.5642 35.0661 23.6426 35.1445C23.7211 35.2229 23.7653 35.3292 23.7657 35.4402V40.2213C23.7656 40.4512 23.5766 40.6322 23.347 40.6322V40.632ZM16.7482 38.1182C16.7482 38.1182 16.7815 38.1759 17.6766 40.0163C17.7092 40.0733 17.7177 40.1309 17.7177 40.1968C17.7177 40.3612 17.6355 40.5172 17.4796 40.5908C17.4222 40.6241 17.3563 40.6322 17.2904 40.6322C17.2092 40.6327 17.1295 40.6097 17.061 40.5659C16.9925 40.5222 16.9382 40.4596 16.9044 40.3856L15.8777 38.2663H14.1768V40.1968C14.1768 40.4434 13.9716 40.6322 13.7336 40.6322C13.6183 40.6315 13.5079 40.5854 13.4264 40.5039C13.3449 40.4224 13.2988 40.3121 13.2981 40.1968V35.5307C13.2987 35.4154 13.3448 35.305 13.4263 35.2234C13.5079 35.1419 13.6183 35.0958 13.7336 35.0952H15.8855C16.9124 35.0952 17.7422 35.5881 17.7422 36.689C17.7422 37.3544 17.3891 37.9047 16.748 38.1182H16.7482ZM16.0007 35.9004H14.177V37.5099H16.0008C16.477 37.5099 16.8633 37.2146 16.8633 36.7135C16.8633 36.2122 16.4858 35.9004 16.0007 35.9004ZM11.8445 40.5908C11.7872 40.6159 11.7298 40.6322 11.6719 40.6322C11.516 40.6322 11.3598 40.5419 11.2946 40.3856L10.7768 39.2195H8.24666L7.72889 40.3855C7.66349 40.5419 7.49878 40.6322 7.34288 40.6322C7.28548 40.6322 7.2359 40.6241 7.1785 40.5991C7.03059 40.5337 6.94041 40.3776 6.94041 40.2214C6.94041 40.1637 6.94856 40.0981 6.97302 40.0404L9.13347 35.2679C9.19935 35.1282 9.3471 35.0214 9.51132 35.0214C9.5914 35.0216 9.6697 35.0449 9.73676 35.0887C9.80382 35.1325 9.85676 35.1947 9.88917 35.2679L12.0499 40.0406C12.0742 40.0983 12.0826 40.1559 12.0826 40.2134C12.0829 40.3692 12.0007 40.5256 11.8445 40.5908ZM9.51148 36.3935L8.58357 38.4714H10.44L9.51148 36.3935ZM6.59713 35.5718L5.07725 40.3364C5.02001 40.5172 4.84763 40.6322 4.66662 40.6322C4.49425 40.6322 4.3297 40.5172 4.28061 40.3445L3.31128 36.8692L2.33347 40.3444C2.31036 40.4269 2.26099 40.4996 2.19284 40.5516C2.12469 40.6035 2.04147 40.6318 1.95578 40.6322C1.77477 40.6322 1.6024 40.5172 1.54483 40.3364L0.0167941 35.5718C0.00864022 35.5307 0.000323276 35.4976 0.000323276 35.4571C-0.00325403 35.3666 0.0229385 35.2773 0.0748919 35.2031C0.126845 35.1288 0.201697 35.0737 0.287992 35.046C0.329087 35.0295 0.370183 35.0215 0.410952 35.0215C0.591805 35.0215 0.756024 35.1365 0.81359 35.3174L1.93882 38.8413L2.93294 35.3087C2.96605 35.1858 3.08102 35.0214 3.31112 35.0214C3.54073 35.0214 3.65603 35.1858 3.68881 35.3087L4.67461 38.8413L5.79984 35.3172C5.82668 35.2314 5.88022 35.1565 5.95265 35.1033C6.02509 35.0501 6.11262 35.0215 6.20248 35.0215C6.24374 35.0215 6.28484 35.0297 6.3256 35.046C6.41137 35.0728 6.48631 35.1264 6.5395 35.1988C6.59268 35.2712 6.62133 35.3588 6.62126 35.4486C6.62175 35.4894 6.61376 35.5307 6.59713 35.5718Z" fill="#A4B9CA"/>
</svg>
